HIERARCHY
ROOT Hips
{
 OFFSET 0.000000 0.000000 0.000000
 CHANNELS 6 Xposition Yposition Zposition Yrotation Xrotation Zrotation
 JOINT Chest
 {
  OFFSET 0.000000 9.585900 0.002600
  CHANNELS 3 Yrotation Xrotation Zrotation
  JOINT Chest2
  {
   OFFSET 0.000000 9.601200 -0.005300
   CHANNELS 3 Yrotation Xrotation Zrotation
   JOINT Chest3
   {
    OFFSET 0.000000 9.561800 0.000000
    CHANNELS 3 Yrotation Xrotation Zrotation
    JOINT Chest4
    {
     OFFSET 0.000000 9.552100 0.000000
     CHANNELS 3 Yrotation Xrotation Zrotation
     JOINT Neck
     {
      OFFSET 0.000000 14.453000 0.000000
      CHANNELS 3 Yrotation Xrotation Zrotation
      JOINT Head
      {
       OFFSET 0.000000 8.936500 -0.011300
       CHANNELS 3 Yrotation Xrotation Zrotation
       End Site
       {
        OFFSET 0.000000 17.073600 -0.006000
       }
      }
     }
     JOINT RightCollar
     {
      OFFSET -2.921100 9.558500 0.000000
      CHANNELS 3 Yrotation Xrotation Zrotation
      JOINT RightShoulder
      {
       OFFSET -13.519700 0.000000 0.000000
       CHANNELS 3 Yrotation Xrotation Zrotation
       JOINT RightElbow
       {
        OFFSET 0.000000 -29.696600 0.000000
        CHANNELS 3 Yrotation Xrotation Zrotation
        JOINT RightWrist
        {
         OFFSET 0.000000 -24.004700 0.000000
         CHANNELS 3 Yrotation Xrotation Zrotation
         End Site
         {
          OFFSET 0.000000 -17.728500 0.000000
         }
        }
       }
      }
     }
     JOINT LeftCollar
     {
      OFFSET 2.921100 9.558500 0.000000
      CHANNELS 3 Yrotation Xrotation Zrotation
      JOINT LeftShoulder
      {
       OFFSET 13.519700 0.000000 0.000000
       CHANNELS 3 Yrotation Xrotation Zrotation
       JOINT LeftElbow
       {
        OFFSET 0.000000 -29.696600 0.000000
        CHANNELS 3 Yrotation Xrotation Zrotation
        JOINT LeftWrist
        {
         OFFSET 0.000000 -24.004700 0.000000
         CHANNELS 3 Yrotation Xrotation Zrotation
         End Site
         {
          OFFSET 0.000000 -17.728500 0.000000
         }
        }
       }
      }
     }
    }
   }
  }
 }
 JOINT RightHip
 {
  OFFSET -7.771700 -0.012900 -0.001300
  CHANNELS 3 Yrotation Xrotation Zrotation
  JOINT RightKnee
  {
   OFFSET 0.000000 -40.869800 0.001200
   CHANNELS 3 Yrotation Xrotation Zrotation
   JOINT RightAnkle
   {
    OFFSET 0.000000 -39.717900 0.002100
    CHANNELS 3 Yrotation Xrotation Zrotation
    JOINT RightToe
    {
     OFFSET 0.000000 -4.965400 11.033500
     CHANNELS 3 Yrotation Xrotation Zrotation
     End Site
     {
      OFFSET 0.000000 -1.423100 5.872300
     }
    }
   }
  }
 }
 JOINT LeftHip
 {
  OFFSET 7.771700 -0.012900 -0.001300
  CHANNELS 3 Yrotation Xrotation Zrotation
  JOINT LeftKnee
  {
   OFFSET 0.000000 -40.869800 0.001200
   CHANNELS 3 Yrotation Xrotation Zrotation
   JOINT LeftAnkle
   {
    OFFSET 0.000000 -39.717900 0.002100
    CHANNELS 3 Yrotation Xrotation Zrotation
    JOINT LeftToe
    {
     OFFSET 0.000000 -4.965400 11.033500
     CHANNELS 3 Yrotation Xrotation Zrotation
     End Site
     {
      OFFSET 0.000000 -1.423100 5.872300
     }
    }
   }
  }
 }
}
MOTION
Frames: 15
Frame Time: 0.008333
-7.057917 54.393032 24.478742 -179.083997 -29.418402 -10.522037 -0.268920 12.456326 5.497158 -0.019432 7.152839 2.345512 0.096227 9.034546 2.956246 0.013777 7.194031 2.355419 4.531240 20.123861 -1.959495 5.354828 -4.202542 -3.145084 -0.861524 0.848141 -2.960473 -14.304474 -6.909628 5.264155 60.898601 -67.828895 -42.610962 13.903915 -4.255804 -16.058528 -11.043745 2.109712 -3.541958 5.971517 -0.660859 -1.621303 -78.013467 -68.692423 84.888447 9.874355 -19.474743 -0.068544 -18.901740 -35.376242 9.102670 28.094825 85.337741 25.441745 1.253699 -17.370412 -1.299851 -0.131443 1.235320 -0.059228 -14.970844 -48.000143 15.855820 175.637551 79.897016 170.802401 -2.103613 -17.579619 2.029648 -0.181516 -1.063409 -0.051773
-7.049658 54.418171 24.475902 -179.068480 -29.414067 -10.505881 -0.272995 12.468540 5.484728 0.033433 7.219203 2.357714 0.070609 9.005151 2.941932 0.019047 7.204549 2.348600 4.510723 20.060907 -1.938617 5.333630 -4.241578 -3.131481 -0.845480 0.754067 -3.031859 -14.311722 -6.844221 5.322457 60.844829 -67.796933 -42.510533 13.881711 -4.273227 -16.142053 -11.065262 2.071889 -3.522035 5.966076 -0.680452 -1.625140 -78.037577 -68.680354 84.906489 9.854740 -19.424065 -0.084848 -18.917712 -35.416281 9.096108 28.402729 85.410430 25.761887 1.249503 -17.428395 -1.323120 -0.119938 1.247808 -0.056038 -14.970504 -48.015987 15.856883 175.717150 79.888303 170.856744 -2.123655 -17.588167 2.053701 -0.172744 -1.055983 -0.056434
-7.123043 54.418155 24.489792 -179.238583 -29.284276 -9.904367 -0.246894 12.325643 4.968562 0.033759 7.224479 2.353002 0.090951 9.038323 2.932914 0.015828 7.200032 2.347249 4.499944 20.017336 -1.918023 5.294483 -4.328677 -3.090650 -0.832504 0.674145 -3.090432 -14.302355 -6.785807 5.365266 60.794185 -67.801796 -42.474021 13.872997 -4.294618 -16.125266 -11.078009 2.080788 -3.526864 5.955265 -0.727452 -1.614218 -78.047240 -68.680959 84.900343 9.841073 -19.351988 -0.106317 -18.573774 -36.051830 8.608890 31.107644 85.771707 28.435777 1.119644 -16.914543 -1.328478 -0.014284 0.646520 -0.006672 -14.330271 -48.285354 15.115060 175.341697 79.955976 170.400198 -2.174948 -17.522565 2.123933 -0.137888 -1.060313 -0.051657
-7.115048 54.442871 24.489387 -179.223483 -29.270653 -9.892552 -0.241091 12.341199 4.970366 0.024304 7.215726 2.340792 0.109514 9.067579 2.920439 0.020685 7.209494 2.338625 4.486552 19.968524 -1.883801 5.254636 -4.422407 -3.048946 -0.831677 0.588378 -3.127376 -14.308955 -6.739640 5.410567 60.753016 -67.794451 -42.409674 13.865488 -4.303539 -16.166221 -11.102817 2.052672 -3.503447 5.960426 -0.742198 -1.610939 -78.007562 -68.716209 84.840642 9.802590 -19.334259 -0.098530 -18.628364 -36.099751 8.638407 31.426340 85.844256 28.727783 1.121150 -16.970170 -1.342280 -0.013366 0.662653 -0.003207 -14.339341 -48.299428 15.132074 175.443856 79.960902 170.465174 -2.182956 -17.516874 2.150748 -0.151226 -1.061403 -0.050708
-7.111102 54.467954 24.487943 -179.226045 -29.268335 -9.852371 -0.221109 12.363085 4.948449 0.054358 7.258454 2.333361 0.086924 9.039252 2.910733 0.032463 7.231971 2.323301 4.462493 19.897543 -1.846187 5.225608 -4.487281 -3.010882 -0.849797 0.508216 -3.123833 -14.255007 -6.712616 5.392464 60.642159 -67.813768 -42.299817 13.858543 -4.310382 -16.219760 -11.132126 2.018127 -3.470470 5.965330 -0.741207 -1.614556 -78.064184 -68.717496 84.885320 9.801011 -19.325151 -0.075476 -18.622165 -36.144010 8.616056 31.759636 85.899480 29.062224 1.108041 -16.979457 -1.361654 -0.004226 0.641360 0.003946 -14.312701 -48.318443 15.103634 175.514618 79.954918 170.509762 -2.193384 -17.531660 2.163506 -0.148882 -1.043933 -0.045618
-7.128474 54.506408 24.456773 -179.370171 -29.486291 -9.622061 -0.046436 12.602854 4.815220 0.034337 7.237000 2.314428 0.089193 9.045476 2.899597 0.022310 7.217774 2.328523 4.450187 19.869572 -1.827071 5.196432 -4.545355 -2.969283 -0.820973 0.455586 -3.191703 -14.242627 -6.662307 5.406755 60.529995 -67.848979 -42.182707 13.842119 -4.305880 -16.256778 -11.140301 2.015845 -3.464845 5.963256 -0.751633 -1.610146 -78.059113 -68.723595 84.859372 9.793202 -19.333400 -0.028423 -18.319487 -36.040586 8.355225 32.371729 85.966597 29.661982 1.110079 -17.043645 -1.366459 -0.004792 0.651346 0.009279 -13.849455 -47.954312 14.744377 175.473129 80.093729 170.438254 -2.303862 -18.074728 2.180438 -0.069794 -0.581144 -0.010751
-7.142405 54.525687 24.461958 -179.403862 -29.438019 -9.472090 -0.026182 12.569732 4.695010 0.019982 7.228740 2.304325 0.105300 9.062087 2.886763 0.028950 7.231409 2.312752 4.427387 19.814609 -1.781917 5.164468 -4.598197 -2.922595 -0.809716 0.379922 -3.230464 -14.246348 -6.617691 5.421106 60.447915 -67.880706 -42.075858 13.813517 -4.323675 -16.227469 -11.162088 1.998797 -3.435067 5.954024 -0.751982 -1.605906 -78.086893 -68.727530 84.864332 9.780241 -19.349351 0.022518 -18.243992 -36.235229 8.240607 33.377945 86.095400 30.665924 1.091401 -16.956957 -1.370541 0.011371 0.522985 0.015958 -13.694898 -48.041199 14.567588 175.427307 80.111491 170.364259 -2.318423 -18.057423 2.208963 -0.057163 -0.579902 -0.013543
-7.140801 54.551382 24.462124 -179.383616 -29.425679 -9.452386 -0.027687 12.573365 4.679473 0.033089 7.240982 2.296407 0.099441 9.058540 2.876419 0.030685 7.237480 2.302215 4.403408 19.769346 -1.741156 5.141997 -4.631656 -2.889231 -0.806408 0.323274 -3.257048 -14.234018 -6.588833 5.410130 60.338866 -67.922062 -41.974785 13.814230 -4.336287 -16.195643 -11.179036 1.994523 -3.419138 5.928681 -0.739010 -1.597231 -78.153548 -68.729745 84.931980 9.774789 -19.356218 0.051000 -18.279318 -36.267771 8.226249 33.662730 86.129874 30.936727 1.114412 -16.981128 -1.386304 0.011321 0.524459 0.013586 -13.679170 -48.061955 14.534789 175.415934 80.116706 170.342094 -2.334474 -18.051675 2.225585 -0.049682 -0.578428 -0.015339
-7.117384 54.564895 24.492169 -179.200175 -29.192427 -9.652497 -0.190657 12.373944 4.798834 0.060212 7.256742 2.295946 0.078771 9.047702 2.871085 0.039511 7.248177 2.283474 4.387883 19.737852 -1.706214 5.136635 -4.639639 -2.880314 -0.797664 0.278258 -3.282481 -14.214330 -6.567656 5.387281 60.209761 -67.966358 -41.858579 13.835117 -4.349164 -16.157875 -11.193410 1.987941 -3.399248 5.916004 -0.737550 -1.587512 -78.171465 -68.729057 84.930817 9.768699 -19.361465 0.079681 -18.622016 -36.429647 8.453915 33.397321 86.142953 30.691162 1.136217 -16.981555 -1.416718 -0.006364 0.525389 0.007030 -14.126501 -48.442484 14.861256 175.454080 79.991475 170.371481 -2.273311 -17.523520 2.243776 -0.115177 -1.018964 -0.046525
-7.118775 54.591763 24.491141 -179.171746 -29.185833 -9.638800 -0.198395 12.382085 4.785104 0.061582 7.254007 2.287571 0.066753 9.046243 2.866224 0.051312 7.258843 2.258809 4.372004 19.705597 -1.664397 5.048705 -4.758673 -2.783725 -0.803672 0.246644 -3.272570 -14.171399 -6.571565 5.332381 60.269916 -67.964825 -41.854476 13.799799 -4.329794 -16.181159 -11.206131 1.980978 -3.379015 5.895262 -0.722396 -1.570378 -78.217565 -68.720886 84.956894 9.770106 -19.365585 0.112640 -18.658810 -36.448294 8.430439 33.598247 86.171051 30.890994 1.131696 -17.007314 -1.430663 0.002391 0.528612 0.004935 -14.121759 -48.453311 14.821103 175.362992 79.996817 170.269919 -2.275766 -17.516573 2.248112 -0.122632 -1.019490 -0.045147
-7.121158 54.619308 24.489100 -179.146064 -29.186099 -9.627245 -0.172176 12.393154 4.792180 0.019832 7.245933 2.267809 0.075501 9.055799 2.852033 0.041732 7.249868 2.264330 4.349108 19.674326 -1.644423 4.995836 -4.839773 -2.729606 -0.776923 0.215150 -3.318266 -14.152105 -6.557591 5.302217 60.323131 -67.956307 -41.872930 13.787984 -4.323798 -16.173624 -11.200750 1.982499 -3.388711 5.874707 -0.693935 -1.540229 -78.294921 -68.711301 85.010437 9.767459 -19.360786 0.094752 -18.699231 -36.456577 8.408927 33.863629 86.192332 31.144520 1.146101 -17.030595 -1.446288 0.000540 0.532501 0.003478 -14.104767 -48.455086 14.777531 175.316465 80.005372 170.220114 -2.287241 -17.514131 2.257390 -0.115634 -1.016886 -0.044857
-7.123706 54.646917 24.487057 -179.124891 -29.187407 -9.620527 -0.170273 12.397265 4.785861 0.007786 7.245767 2.262346 0.104306 9.056966 2.827015 0.014817 7.247687 2.285270 4.301281 19.591235 -1.625861 4.977743 -4.855252 -2.699973 -0.757087 0.186453 -3.361765 -14.139327 -6.550463 5.266483 60.385144 -67.948859 -41.902464 13.796206 -4.321399 -16.147852 -11.193354 1.982855 -3.393971 5.851142 -0.676590 -1.516080 -78.333207 -68.707400 85.042924 9.770281 -19.363141 0.101197 -18.742253 -36.459062 8.399264 34.153409 86.206020 31.416889 1.151611 -17.053852 -1.459424 0.002675 0.539518 0.003579 -14.081746 -48.453449 14.744875 175.301619 80.015140 170.202505 -2.307203 -17.516541 2.272807 -0.103574 -1.010365 -0.042218
-7.126897 54.673870 24.485790 -179.098230 -29.183628 -9.618697 -0.174487 12.394133 4.779655 0.023297 7.246331 2.253245 0.086464 9.052056 2.821025 0.012767 7.249613 2.280206 4.278162 19.555649 -1.600700 4.963618 -4.870205 -2.681238 -0.750251 0.166749 -3.380748 -14.139580 -6.545325 5.241323 60.377030 -67.956689 -41.877357 13.871813 -4.336863 -16.100808 -11.188877 1.988325 -3.385113 5.830029 -0.671146 -1.497131 -78.344804 -68.695583 85.041181 9.721024 -19.353825 0.025588 -18.774661 -36.465753 8.389151 34.291085 86.225142 31.546520 1.150960 -17.075372 -1.466986 0.008960 0.543651 0.005711 -14.080627 -48.459082 14.720112 175.181757 80.019149 170.074554 -2.322141 -17.505851 2.285423 -0.107405 -1.015035 -0.043090
-7.130989 54.700341 24.484599 -179.066831 -29.180837 -9.617832 -0.183329 12.387520 4.771956 0.020911 7.245254 2.245336 0.079557 9.053216 2.815160 0.020462 7.250296 2.267155 4.263948 19.545053 -1.570033 4.890872 -4.990903 -2.635969 -0.757812 0.159893 -3.373770 -14.146383 -6.538136 5.239650 60.718511 -67.889984 -42.152620 13.854847 -4.321769 -16.068406 -11.192881 1.996257 -3.367992 5.813468 -0.665141 -1.483977 -78.361008 -68.671673 85.043244 9.701095 -19.350586 -0.014753 -18.809332 -36.470861 8.374839 34.358888 86.244354 31.606505 1.158087 -17.094144 -1.474729 0.002700 0.544777 0.007094 -14.082320 -48.465266 14.696529 175.032696 80.021077 169.915593 -2.351134 -17.487133 2.302704 -0.107135 -1.025999 -0.043956
-7.135297 54.726877 24.482493 -179.039011 -29.188652 -9.616138 -0.194128 12.391136 4.761860 0.031092 7.239158 2.238517 0.058373 9.062688 2.819034 0.025434 7.242782 2.244385 4.238006 19.499498 -1.543600 4.849248 -5.076427 -2.591162 -0.754465 0.157570 -3.368905 -14.157832 -6.555552 5.183113 60.923454 -67.869314 -42.286943 13.840249 -4.303054 -16.032155 -11.196044 2.010306 -3.345540 5.800286 -0.659626 -1.479948 -78.390852 -68.636618 85.050360 9.716716 -19.348447 0.002636 -18.870786 -36.461405 8.373313 34.512796 86.259147 31.726526 1.172393 -17.111391 -1.483073 -0.007765 0.545605 0.004974 -14.075909 -48.456352 14.664610 174.993602 80.029598 169.870175 -2.359458 -17.482109 2.311962 -0.102433 -1.026023 -0.041877
